<svg width="1440" height="701" viewBox="0 0 1440 701" fill="none" xmlns="http://www.w3.org/2000/svg">
<g clip-path="url(#clip0_1137_1285)">
<rect width="1463" height="757" transform="translate(-22)" fill="#FFC751" fill-opacity="0.05"/>
<rect x="704" y="-776" width="12.5108" height="1829.51" transform="rotate(45 704 -776)" fill="#212224"/>
<rect x="730.54" y="-749.461" width="12.5108" height="1829.51" transform="rotate(45 730.54 -749.461)" fill="#212224"/>
<rect x="757.079" y="-722.921" width="12.5108" height="1829.51" transform="rotate(45 757.079 -722.921)" fill="#212224"/>
<rect x="783.619" y="-696.382" width="12.5108" height="1829.51" transform="rotate(45 783.619 -696.382)" fill="#212224"/>
<rect x="810.158" y="-669.842" width="12.5108" height="1829.51" transform="rotate(45 810.158 -669.842)" fill="#212224"/>
<rect x="836.697" y="-643.303" width="12.5108" height="1829.51" transform="rotate(45 836.697 -643.303)" fill="#212224"/>
<rect x="863.237" y="-616.763" width="12.5108" height="1829.51" transform="rotate(45 863.237 -616.763)" fill="#212224"/>
<rect x="889.776" y="-590.224" width="12.5108" height="1829.51" transform="rotate(45 889.776 -590.224)" fill="#212224"/>
<rect x="916.316" y="-563.684" width="12.5109" height="1829.51" transform="rotate(45 916.316 -563.684)" fill="#212224"/>
<rect x="942.855" y="-537.145" width="12.5109" height="1829.51" transform="rotate(45 942.855 -537.145)" fill="#212224"/>
<rect x="969.395" y="-510.605" width="12.5108" height="1829.51" transform="rotate(45 969.395 -510.605)" fill="#212224"/>
<rect x="995.935" y="-484.066" width="12.5108" height="1829.51" transform="rotate(45 995.935 -484.066)" fill="#212224"/>
<rect x="1022.47" y="-457.526" width="12.5108" height="1829.51" transform="rotate(45 1022.47 -457.526)" fill="#212224"/>
<rect x="1049.01" y="-430.987" width="12.5109" height="1829.51" transform="rotate(45 1049.01 -430.987)" fill="#212224"/>
<rect x="1075.55" y="-404.447" width="12.5108" height="1829.51" transform="rotate(45 1075.55 -404.447)" fill="#212224"/>
<rect x="1102.09" y="-377.908" width="12.5108" height="1829.51" transform="rotate(45 1102.09 -377.908)" fill="#212224"/>
<rect x="1128.63" y="-351.368" width="12.5109" height="1829.51" transform="rotate(45 1128.63 -351.368)" fill="#212224"/>
<rect x="1155.17" y="-324.829" width="12.5109" height="1829.51" transform="rotate(45 1155.17 -324.829)" fill="#212224"/>
<rect x="1181.71" y="-298.289" width="12.5108" height="1829.51" transform="rotate(45 1181.71 -298.289)" fill="#212224"/>
<rect x="1208.25" y="-271.75" width="12.5108" height="1829.51" transform="rotate(45 1208.25 -271.75)" fill="#212224"/>
<rect x="1234.79" y="-245.21" width="12.5108" height="1829.51" transform="rotate(45 1234.79 -245.21)" fill="#212224"/>
<rect x="1261.33" y="-218.671" width="12.5108" height="1829.51" transform="rotate(45 1261.33 -218.671)" fill="#212224"/>
<rect x="1287.87" y="-192.131" width="12.5108" height="1829.51" transform="rotate(45 1287.87 -192.131)" fill="#212224"/>
<rect x="1314.41" y="-165.592" width="12.5109" height="1829.51" transform="rotate(45 1314.41 -165.592)" fill="#212224"/>
<rect x="1367.49" y="-112.513" width="12.5109" height="1829.51" transform="rotate(45 1367.49 -112.513)" fill="#212224"/>
<rect x="1340.95" y="-139.052" width="12.5109" height="1829.51" transform="rotate(45 1340.95 -139.052)" fill="#212224"/>
<rect x="1394.03" y="-85.9734" width="12.5109" height="1829.51" transform="rotate(45 1394.03 -85.9734)" fill="#212224"/>
<rect x="1420.57" y="-59.4338" width="12.5108" height="1829.51" transform="rotate(45 1420.57 -59.4338)" fill="#212224"/>
<rect x="1447.11" y="-32.8943" width="12.5109" height="1829.51" transform="rotate(45 1447.11 -32.8943)" fill="#212224"/>
<rect x="1473.65" y="-6.35474" width="12.5107" height="1829.51" transform="rotate(45 1473.65 -6.35474)" fill="#212224"/>
<rect x="1500.18" y="20.1846" width="12.5107" height="1829.51" transform="rotate(45 1500.18 20.1846)" fill="#212224"/>
<rect x="1526.72" y="46.7239" width="12.511" height="1829.51" transform="rotate(45 1526.72 46.7239)" fill="#212224"/>
<rect x="1553.26" y="73.2634" width="12.5109" height="1829.51" transform="rotate(45 1553.26 73.2634)" fill="#212224"/>
<rect x="1579.8" y="99.803" width="12.5107" height="1829.51" transform="rotate(45 1579.8 99.803)" fill="#212224"/>
<rect x="1606.34" y="126.343" width="12.5107" height="1829.51" transform="rotate(45 1606.34 126.343)" fill="#212224"/>
<rect x="1632.88" y="152.882" width="12.5109" height="1829.51" transform="rotate(45 1632.88 152.882)" fill="#212224"/>
<rect x="1659.42" y="179.421" width="12.5109" height="1829.51" transform="rotate(45 1659.42 179.421)" fill="#212224"/>
<rect x="1685.96" y="205.961" width="12.5109" height="1829.51" transform="rotate(45 1685.96 205.961)" fill="#212224"/>
<rect x="1712.5" y="232.5" width="12.5107" height="1829.51" transform="rotate(45 1712.5 232.5)" fill="#212224"/>
<rect x="1739.04" y="259.04" width="12.5107" height="1829.51" transform="rotate(45 1739.04 259.04)" fill="#212224"/>
<rect x="1765.58" y="285.579" width="12.5109" height="1829.51" transform="rotate(45 1765.58 285.579)" fill="#212224"/>
<rect x="1792.12" y="312.119" width="12.511" height="1829.51" transform="rotate(45 1792.12 312.119)" fill="#212224"/>
<rect x="1818.66" y="338.658" width="12.5107" height="1829.51" transform="rotate(45 1818.66 338.658)" fill="#212224"/>
<rect x="1845.2" y="365.198" width="12.5107" height="1829.51" transform="rotate(45 1845.2 365.198)" fill="#212224"/>
<rect x="1871.74" y="391.737" width="12.5109" height="1829.51" transform="rotate(45 1871.74 391.737)" fill="#212224"/>
<rect x="1898.28" y="418.277" width="12.511" height="1829.51" transform="rotate(45 1898.28 418.277)" fill="#212224"/>
<rect x="1924.82" y="444.816" width="12.5107" height="1829.51" transform="rotate(45 1924.82 444.816)" fill="#212224"/>
<rect x="1951.36" y="471.356" width="12.5109" height="1829.51" transform="rotate(45 1951.36 471.356)" fill="#212224"/>
<rect x="1977.9" y="497.896" width="12.5107" height="1829.51" transform="rotate(45 1977.9 497.896)" fill="#212224"/>
<rect x="-590" y="507" width="12.5108" height="1829.51" transform="rotate(-45 -590 507)" fill="#212224"/>
<rect x="-563.46" y="480.46" width="12.5108" height="1829.51" transform="rotate(-45 -563.46 480.46)" fill="#212224"/>
<rect x="-536.921" y="453.921" width="12.5108" height="1829.51" transform="rotate(-45 -536.921 453.921)" fill="#212224"/>
<rect x="-510.381" y="427.382" width="12.5108" height="1829.51" transform="rotate(-45 -510.381 427.382)" fill="#212224"/>
<rect x="-483.842" y="400.842" width="12.5108" height="1829.51" transform="rotate(-45 -483.842 400.842)" fill="#212224"/>
<rect x="-457.303" y="374.302" width="12.5108" height="1829.51" transform="rotate(-45 -457.303 374.302)" fill="#212224"/>
<rect x="-430.763" y="347.763" width="12.5108" height="1829.51" transform="rotate(-45 -430.763 347.763)" fill="#212224"/>
<rect x="-404.224" y="321.224" width="12.5108" height="1829.51" transform="rotate(-45 -404.224 321.224)" fill="#212224"/>
<rect x="-377.684" y="294.684" width="12.5109" height="1829.51" transform="rotate(-45 -377.684 294.684)" fill="#212224"/>
<rect x="-351.145" y="268.145" width="12.5109" height="1829.51" transform="rotate(-45 -351.145 268.145)" fill="#212224"/>
<rect x="-324.605" y="241.605" width="12.5108" height="1829.51" transform="rotate(-45 -324.605 241.605)" fill="#212224"/>
<rect x="-298.065" y="215.066" width="12.5108" height="1829.51" transform="rotate(-45 -298.065 215.066)" fill="#212224"/>
<rect x="-271.526" y="188.526" width="12.5108" height="1829.51" transform="rotate(-45 -271.526 188.526)" fill="#212224"/>
<rect x="-244.987" y="161.987" width="12.5109" height="1829.51" transform="rotate(-45 -244.987 161.987)" fill="#212224"/>
<rect x="-218.447" y="135.447" width="12.5108" height="1829.51" transform="rotate(-45 -218.447 135.447)" fill="#212224"/>
<rect x="-191.908" y="108.908" width="12.5108" height="1829.51" transform="rotate(-45 -191.908 108.908)" fill="#212224"/>
<rect x="-165.368" y="82.3682" width="12.5109" height="1829.51" transform="rotate(-45 -165.368 82.3682)" fill="#212224"/>
<rect x="-138.829" y="55.8286" width="12.5109" height="1829.51" transform="rotate(-45 -138.829 55.8286)" fill="#212224"/>
<rect x="-112.289" y="29.2893" width="12.5108" height="1829.51" transform="rotate(-45 -112.289 29.2893)" fill="#212224"/>
<rect x="-85.7495" y="2.74976" width="12.5108" height="1829.51" transform="rotate(-45 -85.7495 2.74976)" fill="#212224"/>
<rect x="-59.2104" y="-23.7898" width="12.5108" height="1829.51" transform="rotate(-45 -59.2104 -23.7898)" fill="#212224"/>
<rect x="-32.6709" y="-50.3291" width="12.5108" height="1829.51" transform="rotate(-45 -32.6709 -50.3291)" fill="#212224"/>
<rect x="-6.13135" y="-76.8687" width="12.5108" height="1829.51" transform="rotate(-45 -6.13135 -76.8687)" fill="#212224"/>
<rect x="20.4082" y="-103.408" width="12.5109" height="1829.51" transform="rotate(-45 20.4082 -103.408)" fill="#212224"/>
<rect x="73.4873" y="-156.487" width="12.5109" height="1829.51" transform="rotate(-45 73.4873 -156.487)" fill="#212224"/>
<rect x="46.9478" y="-129.948" width="12.5109" height="1829.51" transform="rotate(-45 46.9478 -129.948)" fill="#212224"/>
<rect x="100.026" y="-183.027" width="12.5109" height="1829.51" transform="rotate(-45 100.026 -183.027)" fill="#212224"/>
<rect x="126.566" y="-209.566" width="12.5108" height="1829.51" transform="rotate(-45 126.566 -209.566)" fill="#212224"/>
<rect x="153.105" y="-236.106" width="12.5109" height="1829.51" transform="rotate(-45 153.105 -236.106)" fill="#212224"/>
<rect x="179.645" y="-262.645" width="12.5107" height="1829.51" transform="rotate(-45 179.645 -262.645)" fill="#212224"/>
<rect x="206.185" y="-289.185" width="12.5107" height="1829.51" transform="rotate(-45 206.185 -289.185)" fill="#212224"/>
<rect x="232.724" y="-315.724" width="12.511" height="1829.51" transform="rotate(-45 232.724 -315.724)" fill="#212224"/>
<rect x="259.264" y="-342.263" width="12.5109" height="1829.51" transform="rotate(-45 259.264 -342.263)" fill="#212224"/>
<rect x="285.803" y="-368.803" width="12.5107" height="1829.51" transform="rotate(-45 285.803 -368.803)" fill="#212224"/>
<rect x="312.343" y="-395.343" width="12.5107" height="1829.51" transform="rotate(-45 312.343 -395.343)" fill="#212224"/>
<rect x="338.882" y="-421.882" width="12.5109" height="1829.51" transform="rotate(-45 338.882 -421.882)" fill="#212224"/>
<rect x="365.421" y="-448.421" width="12.5109" height="1829.51" transform="rotate(-45 365.421 -448.421)" fill="#212224"/>
<rect x="391.961" y="-474.961" width="12.5109" height="1829.51" transform="rotate(-45 391.961 -474.961)" fill="#212224"/>
<rect x="418.5" y="-501.5" width="12.5107" height="1829.51" transform="rotate(-45 418.5 -501.5)" fill="#212224"/>
<rect x="445.04" y="-528.04" width="12.5107" height="1829.51" transform="rotate(-45 445.04 -528.04)" fill="#212224"/>
<rect x="471.58" y="-554.579" width="12.5109" height="1829.51" transform="rotate(-45 471.58 -554.579)" fill="#212224"/>
<rect x="498.119" y="-581.119" width="12.511" height="1829.51" transform="rotate(-45 498.119 -581.119)" fill="#212224"/>
<rect x="524.658" y="-607.658" width="12.5107" height="1829.51" transform="rotate(-45 524.658 -607.658)" fill="#212224"/>
<rect x="551.198" y="-634.198" width="12.5107" height="1829.51" transform="rotate(-45 551.198 -634.198)" fill="#212224"/>
<rect x="577.737" y="-660.737" width="12.5109" height="1829.51" transform="rotate(-45 577.737 -660.737)" fill="#212224"/>
<rect x="604.277" y="-687.277" width="12.511" height="1829.51" transform="rotate(-45 604.277 -687.277)" fill="#212224"/>
<rect x="630.816" y="-713.816" width="12.5107" height="1829.51" transform="rotate(-45 630.816 -713.816)" fill="#212224"/>
<rect x="657.356" y="-740.356" width="12.5109" height="1829.51" transform="rotate(-45 657.356 -740.356)" fill="#212224"/>
<rect x="683.896" y="-766.895" width="12.5107" height="1829.51" transform="rotate(-45 683.896 -766.895)" fill="#212224"/>
</g>
<defs>
<clipPath id="clip0_1137_1285">
<rect width="1463" height="757" fill="white" transform="translate(-22)"/>
</clipPath>
</defs>
</svg>
