<svg width="486" height="416" viewBox="0 0 486 416" fill="none" xmlns="http://www.w3.org/2000/svg">
<path d="M408.035 109.931C411.036 109.931 413.469 107.498 413.469 104.497C413.469 101.496 411.036 99.0633 408.035 99.0633C405.033 99.0633 402.601 101.496 402.601 104.497C402.601 107.498 405.033 109.931 408.035 109.931Z" fill="url(#paint0_linear_156_615)"/>
<path d="M408.034 113.803C413.174 113.803 417.34 109.637 417.34 104.497C417.34 99.3576 413.174 95.1911 408.034 95.1911C402.895 95.1911 398.728 99.3576 398.728 104.497C398.728 109.637 402.895 113.803 408.034 113.803Z" stroke="url(#paint1_linear_156_615)" stroke-miterlimit="10"/>
<path d="M289.961 372.293C289.961 375.927 287.011 378.877 283.378 378.877C279.744 378.877 276.794 375.927 276.794 372.293C276.794 368.66 279.744 365.71 283.378 365.71C287.011 365.71 289.961 368.649 289.961 372.293Z" stroke="url(#paint2_linear_156_615)" stroke-miterlimit="10"/>
<path d="M434.283 133.837C441.447 133.837 447.255 128.029 447.255 120.864C447.255 113.7 441.447 107.892 434.283 107.892C427.118 107.892 421.311 113.7 421.311 120.864C421.311 128.029 427.118 133.837 434.283 133.837Z" fill="url(#paint3_linear_156_615)"/>
<path d="M68.1535 261.455C68.1535 264.774 65.4636 267.464 62.1446 267.464C58.8256 267.464 56.1357 264.774 56.1357 261.455C56.1357 258.136 58.8256 255.446 62.1446 255.446C65.4636 255.446 68.1535 258.136 68.1535 261.455Z" fill="url(#paint4_linear_156_615)"/>
<path d="M369.063 89.5402L378.738 78.0105" stroke="url(#paint5_linear_156_615)" stroke-miterlimit="10"/>
<path d="M372.036 92.024L387.231 73.9214" stroke="url(#paint6_linear_156_615)" stroke-miterlimit="10"/>
<path d="M369.063 101.601L384.671 82.989" stroke="url(#paint7_linear_156_615)" stroke-miterlimit="10"/>
<path d="M73.9131 223.774L83.5772 212.245" stroke="url(#paint8_linear_156_615)" stroke-miterlimit="10"/>
<path d="M76.874 226.269L92.0697 208.156" stroke="url(#paint9_linear_156_615)" stroke-miterlimit="10"/>
<path d="M73.9131 235.836L89.5101 217.223" stroke="url(#paint10_linear_156_615)" stroke-miterlimit="10"/>
<path d="M396.44 288.299L408.783 273.57" stroke="url(#paint11_linear_156_615)" stroke-miterlimit="10"/>
<path d="M400.226 291.477L419.63 268.342" stroke="url(#paint12_linear_156_615)" stroke-miterlimit="10"/>
<path d="M396.44 303.701L416.376 279.937" stroke="url(#paint13_linear_156_615)" stroke-miterlimit="10"/>
<g opacity="0.5">
<path opacity="0.5" d="M376.418 31.176L361.927 47.3262" stroke="url(#paint14_linear_156_615)" stroke-miterlimit="10"/>
<path opacity="0.5" d="M380.572 34.9072L357.816 60.2767" stroke="url(#paint15_linear_156_615)" stroke-miterlimit="10"/>
<path opacity="0.5" d="M393.631 28.7247L370.246 54.7885" stroke="url(#paint16_linear_156_615)" stroke-miterlimit="10"/>
</g>
<path d="M68.1538 281.293L86.5383 259.372" stroke="url(#paint17_linear_156_615)" stroke-miterlimit="10"/>
<path d="M73.7939 286.022L102.678 251.595" stroke="url(#paint18_linear_156_615)" stroke-miterlimit="10"/>
<path d="M68.1538 304.222L97.8186 268.841" stroke="url(#paint19_linear_156_615)" stroke-miterlimit="10"/>
<path d="M102.678 233.753C104.672 233.753 106.29 232.136 106.29 230.141C106.29 228.147 104.672 226.529 102.678 226.529C100.683 226.529 99.0659 228.147 99.0659 230.141C99.0659 232.136 100.683 233.753 102.678 233.753Z" fill="white"/>
<path d="M105.053 305.979C105.053 307.975 103.437 309.591 101.441 309.591C99.4452 309.591 97.8291 307.975 97.8291 305.979C97.8291 303.983 99.4452 302.367 101.441 302.367C103.437 302.367 105.053 303.983 105.053 305.979Z" fill="white"/>
<path d="M86.137 130.81C86.137 131.732 85.3887 132.481 84.4667 132.481C83.5448 132.481 82.7964 131.732 82.7964 130.81C82.7964 129.889 83.5448 129.14 84.4667 129.14C85.3887 129.151 86.137 129.889 86.137 130.81Z" fill="white"/>
<path d="M406.408 179.088C407.33 179.088 408.078 178.34 408.078 177.417C408.078 176.495 407.33 175.747 406.408 175.747C405.485 175.747 404.737 176.495 404.737 177.417C404.737 178.34 405.485 179.088 406.408 179.088Z" fill="white"/>
<path d="M422.97 327.758C422.97 328.68 422.221 329.429 421.299 329.429C420.377 329.429 419.629 328.68 419.629 327.758C419.629 326.836 420.377 326.088 421.299 326.088C422.221 326.099 422.97 326.836 422.97 327.758Z" fill="white"/>
<path d="M68.1538 108.109C70.1486 108.109 71.7657 106.492 71.7657 104.497C71.7657 102.503 70.1486 100.885 68.1538 100.885C66.1591 100.885 64.542 102.503 64.542 104.497C64.542 106.492 66.1591 108.109 68.1538 108.109Z" fill="white"/>
<path d="M166.497 344.668C166.497 346.664 164.881 348.28 162.885 348.28C160.89 348.28 159.273 346.664 159.273 344.668C159.273 342.672 160.89 341.056 162.885 341.056C164.881 341.056 166.497 342.672 166.497 344.668Z" fill="white"/>
<path d="M400.052 342.488C400.052 344.483 398.436 346.1 396.44 346.1C394.444 346.1 392.828 344.483 392.828 342.488C392.828 340.492 394.444 338.876 396.44 338.876C398.436 338.876 400.052 340.492 400.052 342.488Z" fill="white"/>
<path d="M461.887 235.836C461.887 237.831 460.271 239.447 458.275 239.447C456.279 239.447 454.663 237.831 454.663 235.836C454.663 233.84 456.279 232.224 458.275 232.224C460.271 232.213 461.887 233.84 461.887 235.836Z" fill="white"/>
<path d="M27.751 186.311C29.7458 186.311 31.3628 184.694 31.3628 182.699C31.3628 180.705 29.7458 179.088 27.751 179.088C25.7562 179.088 24.1392 180.705 24.1392 182.699C24.1392 184.694 25.7562 186.311 27.751 186.311Z" fill="white"/>
<path d="M129.901 348.356L139.88 352.412L144.37 336.902L129.901 348.356Z" fill="#FF7E3D"/>
<path d="M102.678 335.405L110.791 356.122L141.931 328.854L102.678 335.405Z" fill="url(#paint20_linear_156_615)"/>
<path d="M454.175 164.846L449.826 186.669L414.38 165.291L454.175 164.846Z" fill="#FF7E3D"/>
<path d="M96.2346 81.861L83.0347 91.1129L98.9137 99.3236L96.2346 81.861Z" fill="#FF7E3D"/>
<path d="M419.716 201.485L404.715 195.596L406.646 213.362L419.716 201.485Z" fill="url(#paint21_linear_156_615)"/>
<path d="M282.261 43.389C267.672 35.2759 249.602 29.9395 233.029 34.6902C220.165 38.378 210.458 47.9878 203.126 58.8125C194.872 70.9929 189.058 84.6485 182.897 97.957C179.123 106.103 175.012 113.934 169.502 121.071C163.58 128.75 156.53 135.561 148.666 141.223C140.532 147.069 131.572 151.635 122.071 154.792C111.236 158.393 99.9771 160.388 88.8596 162.905C70.5835 167.059 51.2011 173.513 39.2376 188.893C33.9446 195.693 30.7991 203.937 30.6581 212.581C30.5063 221.453 33.3481 230.196 37.8276 237.788C47.9906 255.045 65.6593 264.915 84.0981 271.238C103.838 278.006 124.674 281.228 144.002 289.254C153.656 293.267 162.897 298.527 170.554 305.719C178.147 312.855 184.015 321.543 189.232 330.503C199.069 347.423 206.987 365.872 221.163 379.788C227.704 386.209 235.524 391.405 244.353 394.051C253.225 396.698 262.705 396.698 271.718 394.778C314.073 385.743 332.924 343.063 349.996 308.018C359.541 288.43 370.127 269.362 386.212 254.339C401.744 239.838 420.28 228.775 434.76 213.113C447.624 199.208 457.299 181.398 455.032 161.907C452.874 143.381 441.344 126.993 427.2 115.398C410.909 102.046 390.757 94.2366 371.19 87.0564C360.691 83.2059 350.061 79.6158 339.866 74.9952C329.8 70.4289 320.125 65.0817 310.57 59.5501C306.003 56.9035 301.47 54.2137 296.914 51.5455C292.077 48.7146 287.055 46.2633 282.163 43.5408C281.783 43.3239 281.436 43.9096 281.816 44.1266C286.697 46.8381 291.339 49.9944 296.155 52.8253C300.71 55.4935 305.244 58.1834 309.81 60.8299C319.149 66.2422 328.607 71.4702 338.423 75.9606C357.892 84.8763 378.696 90.4621 398.11 99.5297C416.213 107.979 433.242 119.324 444.11 136.483C449.099 144.358 452.657 153.252 453.633 162.558C454.652 172.265 452.7 181.973 448.557 190.769C439.88 209.197 423.708 222.343 407.97 234.567C399.618 241.053 391.18 247.485 383.555 254.828C376.179 261.921 369.834 269.937 364.324 278.549C353.087 296.109 345.224 315.502 335.581 333.93C326.167 351.913 314.648 369.918 297.706 381.697C282.055 392.576 261.436 398.411 242.878 392.034C224.612 385.754 212.54 369.126 203.343 353.03C193.581 335.937 185.468 317.183 170.576 303.755C155.868 290.501 136.529 284.232 117.765 279.221C97.938 273.928 77.2323 269.589 59.748 258.288C44.3245 248.32 31.5042 231.074 32.1115 211.995C32.7189 192.667 48.3377 179.077 64.8675 171.788C84.7055 163.035 106.962 162.265 127.136 154.499C144.035 147.991 159.014 136.776 170.153 122.524C180.045 109.877 185.62 94.8115 192.572 80.4943C198.57 68.1404 205.371 55.4718 215.664 46.1223C226.294 36.4582 239.938 32.8138 254.082 34.7878C263.833 36.1436 273.106 39.6145 281.729 44.3109C282.315 44.6038 282.836 43.7144 282.261 43.389Z" fill="url(#paint22_linear_156_615)"/>
<g opacity="0.4248">
<path opacity="0.4248" d="M287.901 11.978C271.219 2.70434 250.546 -3.3913 231.598 2.05357C216.901 6.27279 205.805 17.2602 197.432 29.625C187.985 43.5734 181.336 59.203 174.275 74.4312C169.947 83.7699 165.24 92.729 158.938 100.907C152.159 109.704 144.079 117.524 135.054 123.999C125.737 130.702 115.466 135.93 104.587 139.542C92.1897 143.663 79.2934 145.941 66.5706 148.837C45.6697 153.588 23.4889 160.963 9.80086 178.556C3.75945 186.322 0.180157 195.737 0.00661592 205.607C-0.166926 215.748 3.08698 225.727 8.19561 234.404C19.812 254.133 40.0188 265.424 61.1041 272.648C83.7078 280.392 107.559 284.08 129.685 293.267C140.76 297.866 151.356 303.896 160.131 312.14C168.83 320.307 175.555 330.264 181.531 340.535C192.779 359.896 201.846 381.014 218.072 396.936C225.545 404.279 234.472 410.212 244.57 413.238C254.711 416.264 265.536 416.265 275.84 414.074C324.291 403.737 345.853 354.896 365.387 314.797C376.32 292.367 388.436 270.522 406.875 253.32C424.663 236.725 445.878 224.056 462.451 206.127C477.159 190.227 488.222 169.868 485.619 147.579C483.146 126.407 469.957 107.664 453.785 94.4102C435.151 79.1385 412.092 70.2011 389.716 61.9905C377.687 57.576 365.507 53.4652 353.825 48.1722C342.306 42.9443 331.221 36.8269 320.288 30.4818C315.06 27.4557 309.865 24.3753 304.659 21.3167C299.127 18.0736 293.4 15.221 287.803 12.1081C287.424 11.8912 287.077 12.4769 287.456 12.6938C293.042 15.7959 298.389 19.3643 303.91 22.5965C309.116 25.6552 314.323 28.7247 319.54 31.7617C330.223 37.955 341.048 43.9421 352.285 49.0833C374.574 59.2897 398.393 65.6782 420.617 76.0582C441.355 85.7439 460.857 98.7379 473.319 118.391C479.035 127.416 483.114 137.622 484.231 148.295C485.402 159.434 483.157 170.551 478.395 180.649C468.449 201.756 449.935 216.811 431.919 230.814C422.352 238.243 412.699 245.597 403.968 254.003C395.529 262.116 388.273 271.292 381.971 281.141C369.108 301.25 360.105 323.452 349.064 344.549C338.271 365.157 325.082 385.775 305.667 399.268C287.728 411.731 264.083 418.423 242.813 411.102C221.879 403.9 208.029 384.853 197.486 366.393C186.314 346.837 177.03 325.372 159.99 310.003C143.167 294.84 121.041 287.67 99.576 281.943C76.8746 275.88 53.1537 270.902 33.1422 257.973C15.4627 246.552 0.765862 226.768 1.44918 204.891C2.14335 182.732 20.0507 167.135 38.9992 158.772C61.7115 148.75 87.2112 147.872 110.314 138.967C129.631 131.526 146.768 118.684 159.513 102.393C170.836 87.9132 177.214 70.6784 185.165 54.3004C192.041 40.1459 199.829 25.6444 211.619 14.9282C223.821 3.84321 239.461 -0.332635 255.698 1.9451C266.87 3.50697 277.489 7.47674 287.359 12.8674C287.966 13.1819 288.487 12.2925 287.901 11.978Z" fill="url(#paint23_linear_156_615)"/>
</g>
<path d="M366.407 257.246C379.184 243.439 395.345 233.525 409.293 221.03C421.452 210.141 432.624 196.301 435.357 179.76C437.982 163.794 431.778 148.089 421.767 135.822C410.617 122.155 395.095 113.283 379.108 106.385C361.634 98.8464 343.185 93.716 326.048 85.386C308.976 77.0777 293.292 66.3182 276.469 57.5869C263.725 50.9706 248.073 46.9249 233.897 51.014C222.986 54.1595 214.526 62.0122 208.039 71.058C200.631 81.3837 195.414 93.1195 190.132 104.606C187.106 111.2 184.145 117.817 180.164 123.912C175.707 130.724 170.316 136.917 164.209 142.297C157.951 147.818 150.923 152.46 143.395 156.05C134.729 160.182 125.412 162.601 116.073 164.673C99.088 168.436 81.3867 171.473 67.1238 182.168C61.1258 186.669 55.9412 192.396 52.9151 199.327C49.889 206.247 49.2816 213.915 50.8109 221.291C54.0973 237.105 65.7029 249.838 79.4019 257.691C110.357 275.446 151.465 272.399 178.06 298.321C190.967 310.903 197.963 327.845 206.966 343.128C214.959 356.707 225.253 370.211 240.296 376.317C255.644 382.554 273.128 379.3 287.261 371.469C302.544 363.009 313.737 349.039 322.523 334.245C324.735 330.513 326.818 326.717 328.813 322.867C330.874 318.908 332.458 314.764 334.399 310.751C334.584 310.361 334.009 310.014 333.814 310.404C331.894 314.385 329.573 318.192 327.534 322.107C325.484 326.045 323.358 329.949 321.08 333.767C316.6 341.284 311.579 348.497 305.635 354.928C294.17 367.337 278.714 376.664 261.588 377.988C253.355 378.628 245.047 377.229 237.639 373.519C230.405 369.896 224.309 364.419 219.146 358.247C208.267 345.243 201.759 329.429 192.909 315.101C188.505 307.975 183.473 301.163 177.236 295.534C170.967 289.872 163.624 285.534 155.923 282.139C140.098 275.154 123.015 272.008 106.507 267.095C90.0638 262.203 73.3496 255.207 62.3189 241.497C52.3294 229.078 47.5895 211.768 55.6592 197.114C63.4903 182.895 79.4019 175.324 94.4132 171.191C111.973 166.354 130.38 164.521 146.758 156.028C160.576 148.87 172.518 138.121 181.108 125.149C188.44 114.085 192.963 101.308 198.907 89.486C204.156 79.0626 210.22 68.4983 219.157 60.7757C228.42 52.7711 240.123 49.745 252.195 51.2635C270.211 53.5195 285.439 64.2682 300.743 73.2056C308.802 77.9129 316.926 82.5335 325.332 86.6117C333.434 90.5489 341.786 93.7486 350.246 96.8181C381.722 108.283 420.118 121.526 431.962 156.56C434.576 164.282 435.346 172.547 433.817 180.574C432.255 188.752 428.535 196.344 423.752 203.112C413.534 217.603 398.957 227.864 385.247 238.753C378.338 244.242 371.613 249.968 365.68 256.509C365.235 257.008 365.962 257.734 366.407 257.246Z" fill="url(#paint24_linear_156_615)"/>
<defs>
<linearGradient id="paint0_linear_156_615" x1="402.605" y1="104.502" x2="413.463" y2="104.502" gradientUnits="userSpaceOnUse">
<stop offset="0.0277" stop-color="#FFD24D"/>
<stop offset="0.7154" stop-color="#F6BE56"/>
<stop offset="1" stop-color="#F2B45A"/>
</linearGradient>
<linearGradient id="paint1_linear_156_615" x1="398.182" y1="104.502" x2="417.885" y2="104.502" gradientUnits="userSpaceOnUse">
<stop offset="0.0277" stop-color="#FFD24D"/>
<stop offset="0.7154" stop-color="#F6BE56"/>
<stop offset="1" stop-color="#F2B45A"/>
</linearGradient>
<linearGradient id="paint2_linear_156_615" x1="276.248" y1="372.289" x2="290.498" y2="372.289" gradientUnits="userSpaceOnUse">
<stop offset="0.0277" stop-color="#FFD24D"/>
<stop offset="0.7154" stop-color="#F6BE56"/>
<stop offset="1" stop-color="#F2B45A"/>
</linearGradient>
<linearGradient id="paint3_linear_156_615" x1="421.306" y1="120.869" x2="447.257" y2="120.869" gradientUnits="userSpaceOnUse">
<stop offset="0.0277" stop-color="#FFD24D"/>
<stop offset="0.7154" stop-color="#F6BE56"/>
<stop offset="1" stop-color="#F2B45A"/>
</linearGradient>
<linearGradient id="paint4_linear_156_615" x1="56.144" y1="261.451" x2="68.153" y2="261.451" gradientUnits="userSpaceOnUse">
<stop offset="0.0277" stop-color="#FFD24D"/>
<stop offset="0.7154" stop-color="#F6BE56"/>
<stop offset="1" stop-color="#F2B45A"/>
</linearGradient>
<linearGradient id="paint5_linear_156_615" x1="368.222" y1="84.2716" x2="379.584" y2="83.2759" gradientUnits="userSpaceOnUse">
<stop offset="0.0277" stop-color="#FFD24D"/>
<stop offset="0.7154" stop-color="#F6BE56"/>
<stop offset="1" stop-color="#F2B45A"/>
</linearGradient>
<linearGradient id="paint6_linear_156_615" x1="370.926" y1="83.7358" x2="388.34" y2="82.2097" gradientUnits="userSpaceOnUse">
<stop offset="0.0277" stop-color="#FFD24D"/>
<stop offset="0.7154" stop-color="#F6BE56"/>
<stop offset="1" stop-color="#F2B45A"/>
</linearGradient>
<linearGradient id="paint7_linear_156_615" x1="367.937" y1="93.0771" x2="385.807" y2="91.5111" gradientUnits="userSpaceOnUse">
<stop offset="0.0277" stop-color="#FFD24D"/>
<stop offset="0.7154" stop-color="#F6BE56"/>
<stop offset="1" stop-color="#F2B45A"/>
</linearGradient>
<linearGradient id="paint8_linear_156_615" x1="73.4927" y1="218.01" x2="83.9928" y2="218.01" gradientUnits="userSpaceOnUse">
<stop offset="0.0277" stop-color="#FFD24D"/>
<stop offset="0.1674" stop-color="#EBC34D"/>
<stop offset="0.4544" stop-color="#B69D4D"/>
<stop offset="0.8604" stop-color="#625F4E"/>
<stop offset="1" stop-color="#44494E"/>
</linearGradient>
<linearGradient id="paint9_linear_156_615" x1="76.4616" y1="217.209" x2="92.4834" y2="217.209" gradientUnits="userSpaceOnUse">
<stop offset="0.0277" stop-color="#FFD24D"/>
<stop offset="0.1674" stop-color="#EBC34D"/>
<stop offset="0.4544" stop-color="#B69D4D"/>
<stop offset="0.8604" stop-color="#625F4E"/>
<stop offset="1" stop-color="#44494E"/>
</linearGradient>
<linearGradient id="paint10_linear_156_615" x1="73.4927" y1="226.53" x2="89.9309" y2="226.53" gradientUnits="userSpaceOnUse">
<stop offset="0.0277" stop-color="#FFD24D"/>
<stop offset="0.1674" stop-color="#EBC34D"/>
<stop offset="0.4544" stop-color="#B69D4D"/>
<stop offset="0.8604" stop-color="#625F4E"/>
<stop offset="1" stop-color="#44494E"/>
</linearGradient>
<linearGradient id="paint11_linear_156_615" x1="395.46" y1="281.562" x2="409.762" y2="280.309" gradientUnits="userSpaceOnUse">
<stop offset="0.0277" stop-color="#FFD24D"/>
<stop offset="0.7154" stop-color="#F6BE56"/>
<stop offset="1" stop-color="#F2B45A"/>
</linearGradient>
<linearGradient id="paint12_linear_156_615" x1="398.914" y1="280.878" x2="420.947" y2="278.947" gradientUnits="userSpaceOnUse">
<stop offset="0.0277" stop-color="#FFD24D"/>
<stop offset="0.7154" stop-color="#F6BE56"/>
<stop offset="1" stop-color="#F2B45A"/>
</linearGradient>
<linearGradient id="paint13_linear_156_615" x1="395.096" y1="292.81" x2="417.711" y2="290.828" gradientUnits="userSpaceOnUse">
<stop offset="0.0277" stop-color="#FFD24D"/>
<stop offset="0.7154" stop-color="#F6BE56"/>
<stop offset="1" stop-color="#F2B45A"/>
</linearGradient>
<linearGradient id="paint14_linear_156_615" x1="368.736" y1="31.2123" x2="369.608" y2="47.2961" gradientUnits="userSpaceOnUse">
<stop offset="0.0277" stop-color="#FFD24D"/>
<stop offset="0.7154" stop-color="#F6BE56"/>
<stop offset="1" stop-color="#F2B45A"/>
</linearGradient>
<linearGradient id="paint15_linear_156_615" x1="368.521" y1="35.1812" x2="369.867" y2="60.0128" gradientUnits="userSpaceOnUse">
<stop offset="0.0277" stop-color="#FFD24D"/>
<stop offset="0.7154" stop-color="#F6BE56"/>
<stop offset="1" stop-color="#F2B45A"/>
</linearGradient>
<linearGradient id="paint16_linear_156_615" x1="381.249" y1="29.0143" x2="382.63" y2="54.5051" gradientUnits="userSpaceOnUse">
<stop offset="0.0277" stop-color="#FFD24D"/>
<stop offset="0.7154" stop-color="#F6BE56"/>
<stop offset="1" stop-color="#F2B45A"/>
</linearGradient>
<linearGradient id="paint17_linear_156_615" x1="66.8883" y1="271.249" x2="87.7995" y2="269.417" gradientUnits="userSpaceOnUse">
<stop offset="0.0277" stop-color="#FFD24D"/>
<stop offset="0.1674" stop-color="#EBC34D"/>
<stop offset="0.4544" stop-color="#B69D4D"/>
<stop offset="0.8604" stop-color="#625F4E"/>
<stop offset="1" stop-color="#44494E"/>
</linearGradient>
<linearGradient id="paint18_linear_156_615" x1="72.0285" y1="270.23" x2="104.445" y2="267.39" gradientUnits="userSpaceOnUse">
<stop offset="0.0277" stop-color="#FFD24D"/>
<stop offset="0.1674" stop-color="#EBC34D"/>
<stop offset="0.4544" stop-color="#B69D4D"/>
<stop offset="0.8604" stop-color="#625F4E"/>
<stop offset="1" stop-color="#44494E"/>
</linearGradient>
<linearGradient id="paint19_linear_156_615" x1="66.3462" y1="287.989" x2="99.6304" y2="285.072" gradientUnits="userSpaceOnUse">
<stop offset="0.0277" stop-color="#FFD24D"/>
<stop offset="0.1674" stop-color="#EBC34D"/>
<stop offset="0.4544" stop-color="#B69D4D"/>
<stop offset="0.8604" stop-color="#625F4E"/>
<stop offset="1" stop-color="#44494E"/>
</linearGradient>
<linearGradient id="paint20_linear_156_615" x1="102.676" y1="342.489" x2="141.931" y2="342.489" gradientUnits="userSpaceOnUse">
<stop offset="0.0277" stop-color="#FFD24D"/>
<stop offset="0.7154" stop-color="#FFBE56"/>
<stop offset="1" stop-color="#FFB45A"/>
</linearGradient>
<linearGradient id="paint21_linear_156_615" x1="402.886" y1="197.492" x2="413.601" y2="207.825" gradientUnits="userSpaceOnUse">
<stop offset="0.0277" stop-color="#FFD24D"/>
<stop offset="0.7154" stop-color="#F6BE56"/>
<stop offset="1" stop-color="#F2B45A"/>
</linearGradient>
<linearGradient id="paint22_linear_156_615" x1="54.724" y1="287.002" x2="449.841" y2="143.191" gradientUnits="userSpaceOnUse">
<stop offset="0.0277" stop-color="#FFD24D"/>
<stop offset="0.0356" stop-color="#F7CC4C"/>
<stop offset="0.0797" stop-color="#CEAE4A"/>
<stop offset="0.1292" stop-color="#A89348"/>
<stop offset="0.1831" stop-color="#887B45"/>
<stop offset="0.2427" stop-color="#6C6744"/>
<stop offset="0.3099" stop-color="#565742"/>
<stop offset="0.3884" stop-color="#454B41"/>
<stop offset="0.4856" stop-color="#3A4241"/>
<stop offset="0.6218" stop-color="#333D40"/>
<stop offset="1" stop-color="#313C40"/>
</linearGradient>
<linearGradient id="paint23_linear_156_615" x1="0.00531436" y1="207.817" x2="486.007" y2="207.817" gradientUnits="userSpaceOnUse">
<stop stop-color="#5C5A44"/>
<stop offset="0.6103" stop-color="#3F4541"/>
<stop offset="1" stop-color="#313C40"/>
</linearGradient>
<linearGradient id="paint24_linear_156_615" x1="150.456" y1="98.0516" x2="357.293" y2="304.888" gradientUnits="userSpaceOnUse">
<stop stop-color="#313C40"/>
<stop offset="0.251" stop-color="#333E40"/>
<stop offset="0.397" stop-color="#3C4441"/>
<stop offset="0.5161" stop-color="#4A4E42"/>
<stop offset="0.6208" stop-color="#5E5D43"/>
<stop offset="0.716" stop-color="#786F44"/>
<stop offset="0.8042" stop-color="#988746"/>
<stop offset="0.8873" stop-color="#BDA249"/>
<stop offset="0.964" stop-color="#E8C14C"/>
<stop offset="1" stop-color="#FFD24D"/>
</linearGradient>
</defs>
</svg>
