<svg width="551" height="2965" viewBox="0 0 551 2965" fill="none" xmlns="http://www.w3.org/2000/svg">
<path d="M327.4 629.36L322.95 624.91L327.4 620.46C327.96 619.9 327.96 618.98 327.4 618.42C326.84 617.86 325.92 617.86 325.36 618.42L320.91 622.87L316.46 618.42C315.9 617.86 314.98 617.86 314.42 618.42C313.86 618.98 313.86 619.9 314.42 620.46L318.87 624.91L314.42 629.36C313.86 629.92 313.86 630.84 314.42 631.4C314.98 631.96 315.9 631.96 316.46 631.4L320.91 626.95L325.36 631.4C325.92 631.96 326.84 631.96 327.4 631.4C327.97 630.84 327.97 629.93 327.4 629.36Z" fill="#FFC263"/>
<path d="M358.4 1778.36L353.95 1773.91L358.4 1769.46C358.96 1768.9 358.96 1767.98 358.4 1767.42C357.84 1766.86 356.92 1766.86 356.36 1767.42L351.91 1771.87L347.46 1767.42C346.9 1766.86 345.98 1766.86 345.42 1767.42C344.86 1767.98 344.86 1768.9 345.42 1769.46L349.87 1773.91L345.42 1778.36C344.86 1778.92 344.86 1779.84 345.42 1780.4C345.98 1780.96 346.9 1780.96 347.46 1780.4L351.91 1775.95L356.36 1780.4C356.92 1780.96 357.84 1780.96 358.4 1780.4C358.97 1779.84 358.97 1778.93 358.4 1778.36Z" fill="#FFC263"/>
<path d="M476.4 2202.36L471.95 2197.91L476.4 2193.46C476.96 2192.9 476.96 2191.98 476.4 2191.42C475.84 2190.86 474.92 2190.86 474.36 2191.42L469.91 2195.87L465.46 2191.42C464.9 2190.86 463.98 2190.86 463.42 2191.42C462.86 2191.98 462.86 2192.9 463.42 2193.46L467.87 2197.91L463.42 2202.36C462.86 2202.92 462.86 2203.84 463.42 2204.4C463.98 2204.96 464.9 2204.96 465.46 2204.4L469.91 2199.95L474.36 2204.4C474.92 2204.96 475.84 2204.96 476.4 2204.4C476.97 2203.84 476.97 2202.93 476.4 2202.36Z" fill="#FFC263"/>
<path d="M246.687 2679.91L240.774 2682.06L238.621 2676.15C238.35 2675.41 237.516 2675.02 236.772 2675.29C236.028 2675.56 235.639 2676.39 235.91 2677.14L238.063 2683.05L232.15 2685.2C231.405 2685.48 231.017 2686.31 231.288 2687.05C231.559 2687.8 232.392 2688.19 233.137 2687.92L239.05 2685.76L241.203 2691.68C241.474 2692.42 242.308 2692.81 243.052 2692.54C243.796 2692.27 244.185 2691.43 243.914 2690.69L241.761 2684.78L247.674 2682.62C248.419 2682.35 248.807 2681.52 248.536 2680.77C248.27 2680.02 247.445 2679.64 246.687 2679.91Z" fill="#FFC263"/>
<path d="M167.94 2256.11L114 2202.17C128.9 2187.27 153.05 2187.27 167.94 2202.17C182.84 2217.06 182.84 2241.21 167.94 2256.11Z" fill="#FF7E3D"/>
<path d="M166.723 1173.92L118.665 1233.16C102.301 1219.88 99.7975 1195.86 113.074 1179.51C126.339 1163.14 150.359 1160.64 166.723 1173.92Z" fill="#FFC263"/>
<path d="M157.09 1502.41L219.269 1458.22C231.476 1475.4 227.449 1499.21 210.275 1511.41C193.109 1523.61 169.297 1519.59 157.09 1502.41Z" fill="#FFC263"/>
<path opacity="0.49" d="M1 521.813C3.53935 519.231 7.98848 523.754 10.5278 521.173C13.0672 518.591 8.61804 514.069 11.1574 511.488C13.6967 508.907 18.1459 513.429 20.6852 510.848C23.2246 508.267 18.7754 503.744 21.3043 501.163C23.8436 498.582 28.2928 503.104 30.8321 500.523C33.3715 497.942 28.9224 493.419 31.4617 490.827C34.0011 488.246 38.4502 492.769 41 490.187" stroke="#FFC751" stroke-width="2" stroke-miterlimit="10" stroke-linecap="round" stroke-linejoin="round"/>
<path opacity="0.49" d="M137 1025.81C139.539 1023.23 143.988 1027.75 146.528 1025.17C149.067 1022.59 144.618 1018.07 147.157 1015.49C149.697 1012.91 154.146 1017.43 156.685 1014.85C159.225 1012.27 154.775 1007.74 157.304 1005.16C159.844 1002.58 164.293 1007.1 166.832 1004.52C169.371 1001.94 164.922 997.419 167.462 994.827C170.001 992.246 174.45 996.769 177 994.187" stroke="#FFC751" stroke-width="2" stroke-miterlimit="10" stroke-linecap="round" stroke-linejoin="round"/>
<path opacity="0.49" d="M177 1897.81C179.539 1895.23 183.988 1899.75 186.528 1897.17C189.067 1894.59 184.618 1890.07 187.157 1887.49C189.697 1884.91 194.146 1889.43 196.685 1886.85C199.225 1884.27 194.775 1879.74 197.304 1877.16C199.844 1874.58 204.293 1879.1 206.832 1876.52C209.371 1873.94 204.922 1869.42 207.462 1866.83C210.001 1864.25 214.45 1868.77 217 1866.19" stroke="#FFC751" stroke-width="2" stroke-miterlimit="10" stroke-linecap="round" stroke-linejoin="round"/>
<path opacity="0.49" d="M362 1363.81C364.539 1361.23 368.988 1365.75 371.528 1363.17C374.067 1360.59 369.618 1356.07 372.157 1353.49C374.697 1350.91 379.146 1355.43 381.685 1352.85C384.225 1350.27 379.775 1345.74 382.304 1343.16C384.844 1340.58 389.293 1345.1 391.832 1342.52C394.371 1339.94 389.922 1335.42 392.462 1332.83C395.001 1330.25 399.45 1334.77 402 1332.19" stroke="#FFC751" stroke-width="2" stroke-miterlimit="10" stroke-linecap="round" stroke-linejoin="round"/>
<path d="M225 801.217L282.019 825.801L241.217 842.019L225 801.217Z" fill="#FF7E3D"/>
<path d="M217.939 2922.18L272.345 2952.1L230.18 2964.35L217.939 2922.18Z" fill="#FFC263"/>
<path d="M371.01 10.4124L365.066 8.3444L367.134 2.40065C367.394 1.65267 366.994 0.824494 366.246 0.564247C365.498 0.304 364.669 0.704639 364.409 1.45262L362.341 7.39637L356.397 5.32834C355.649 5.06809 354.821 5.46872 354.561 6.2167C354.301 6.96468 354.701 7.79286 355.449 8.0531L361.393 10.1211L359.325 16.0649C359.065 16.8129 359.465 17.6411 360.213 17.9013C360.961 18.1616 361.79 17.7609 362.05 17.0129L364.118 11.0692L370.062 13.1372C370.81 13.3975 371.638 12.9968 371.898 12.2489C372.167 11.4965 371.771 10.6773 371.01 10.4124Z" fill="#FFC263"/>
<path d="M548.779 95.8413L542.582 94.7434L543.68 88.5467C543.819 87.7669 543.291 87.0128 542.512 86.8746C541.732 86.7365 540.978 87.2636 540.84 88.0434L539.742 94.2401L533.545 93.1422C532.765 93.004 532.011 93.5311 531.873 94.3109C531.735 95.0907 532.262 95.8448 533.042 95.983L539.238 97.0809L538.141 103.278C538.002 104.057 538.529 104.811 539.309 104.95C540.089 105.088 540.843 104.561 540.981 103.781L542.079 97.5842L548.276 98.6821C549.056 98.8202 549.81 98.2932 549.948 97.5133C550.094 96.7278 549.573 95.9819 548.779 95.8413Z" fill="#FFC263"/>
</svg>
