<svg width="1309" height="2998" viewBox="0 0 1309 2998" fill="none" xmlns="http://www.w3.org/2000/svg">
<path d="M703.4 201.36L698.95 196.91L703.4 192.46C703.96 191.9 703.96 190.98 703.4 190.42C702.84 189.86 701.92 189.86 701.36 190.42L696.91 194.87L692.46 190.42C691.9 189.86 690.98 189.86 690.42 190.42C689.86 190.98 689.86 191.9 690.42 192.46L694.87 196.91L690.42 201.36C689.86 201.92 689.86 202.84 690.42 203.4C690.98 203.96 691.9 203.96 692.46 203.4L696.91 198.95L701.36 203.4C701.92 203.96 702.84 203.96 703.4 203.4C703.97 202.84 703.97 201.93 703.4 201.36Z" fill="#FFC263"/>
<path d="M1308.4 1689.36L1303.95 1684.91L1308.4 1680.46C1308.96 1679.9 1308.96 1678.98 1308.4 1678.42C1307.84 1677.86 1306.92 1677.86 1306.36 1678.42L1301.91 1682.87L1297.46 1678.42C1296.9 1677.86 1295.98 1677.86 1295.42 1678.42C1294.86 1678.98 1294.86 1679.9 1295.42 1680.46L1299.87 1684.91L1295.42 1689.36C1294.86 1689.92 1294.86 1690.84 1295.42 1691.4C1295.98 1691.96 1296.9 1691.96 1297.46 1691.4L1301.91 1686.95L1306.36 1691.4C1306.92 1691.96 1307.84 1691.96 1308.4 1691.4C1308.97 1690.84 1308.97 1689.93 1308.4 1689.36Z" fill="#FFC263"/>
<path d="M862.4 892.36L857.95 887.91L862.4 883.46C862.96 882.9 862.96 881.98 862.4 881.42C861.84 880.86 860.92 880.86 860.36 881.42L855.91 885.87L851.46 881.42C850.9 880.86 849.98 880.86 849.42 881.42C848.86 881.98 848.86 882.9 849.42 883.46L853.87 887.91L849.42 892.36C848.86 892.92 848.86 893.84 849.42 894.4C849.98 894.96 850.9 894.96 851.46 894.4L855.91 889.95L860.36 894.4C860.92 894.96 861.84 894.96 862.4 894.4C862.97 893.84 862.97 892.93 862.4 892.36Z" fill="#FFC263"/>
<path d="M327.4 662.36L322.95 657.91L327.4 653.46C327.96 652.9 327.96 651.98 327.4 651.42C326.84 650.86 325.92 650.86 325.36 651.42L320.91 655.87L316.46 651.42C315.9 650.86 314.98 650.86 314.42 651.42C313.86 651.98 313.86 652.9 314.42 653.46L318.87 657.91L314.42 662.36C313.86 662.92 313.86 663.84 314.42 664.4C314.98 664.96 315.9 664.96 316.46 664.4L320.91 659.95L325.36 664.4C325.92 664.96 326.84 664.96 327.4 664.4C327.97 663.84 327.97 662.93 327.4 662.36Z" fill="#FFC263"/>
<path d="M1211.4 1224.36L1206.95 1219.91L1211.4 1215.46C1211.96 1214.9 1211.96 1213.98 1211.4 1213.42C1210.84 1212.86 1209.92 1212.86 1209.36 1213.42L1204.91 1217.87L1200.46 1213.42C1199.9 1212.86 1198.98 1212.86 1198.42 1213.42C1197.86 1213.98 1197.86 1214.9 1198.42 1215.46L1202.87 1219.91L1198.42 1224.36C1197.86 1224.92 1197.86 1225.84 1198.42 1226.4C1198.98 1226.96 1199.9 1226.96 1200.46 1226.4L1204.91 1221.95L1209.36 1226.4C1209.92 1226.96 1210.84 1226.96 1211.4 1226.4C1211.97 1225.84 1211.97 1224.93 1211.4 1224.36Z" fill="#FFC263"/>
<path d="M358.4 1811.36L353.95 1806.91L358.4 1802.46C358.96 1801.9 358.96 1800.98 358.4 1800.42C357.84 1799.86 356.92 1799.86 356.36 1800.42L351.91 1804.87L347.46 1800.42C346.9 1799.86 345.98 1799.86 345.42 1800.42C344.86 1800.98 344.86 1801.9 345.42 1802.46L349.87 1806.91L345.42 1811.36C344.86 1811.92 344.86 1812.84 345.42 1813.4C345.98 1813.96 346.9 1813.96 347.46 1813.4L351.91 1808.95L356.36 1813.4C356.92 1813.96 357.84 1813.96 358.4 1813.4C358.97 1812.84 358.97 1811.93 358.4 1811.36Z" fill="#FFC263"/>
<path d="M821.4 1468.36L816.95 1463.91L821.4 1459.46C821.96 1458.9 821.96 1457.98 821.4 1457.42C820.84 1456.86 819.92 1456.86 819.36 1457.42L814.91 1461.87L810.46 1457.42C809.9 1456.86 808.98 1456.86 808.42 1457.42C807.86 1457.98 807.86 1458.9 808.42 1459.46L812.87 1463.91L808.42 1468.36C807.86 1468.92 807.86 1469.84 808.42 1470.4C808.98 1470.96 809.9 1470.96 810.46 1470.4L814.91 1465.95L819.36 1470.4C819.92 1470.96 820.84 1470.96 821.4 1470.4C821.97 1469.84 821.97 1468.93 821.4 1468.36Z" fill="#FFC263"/>
<path d="M476.4 2235.36L471.95 2230.91L476.4 2226.46C476.96 2225.9 476.96 2224.98 476.4 2224.42C475.84 2223.86 474.92 2223.86 474.36 2224.42L469.91 2228.87L465.46 2224.42C464.9 2223.86 463.98 2223.86 463.42 2224.42C462.86 2224.98 462.86 2225.9 463.42 2226.46L467.87 2230.91L463.42 2235.36C462.86 2235.92 462.86 2236.84 463.42 2237.4C463.98 2237.96 464.9 2237.96 465.46 2237.4L469.91 2232.95L474.36 2237.4C474.92 2237.96 475.84 2237.96 476.4 2237.4C476.97 2236.84 476.97 2235.93 476.4 2235.36Z" fill="#FFC263"/>
<path d="M246.687 2712.91L240.774 2715.06L238.621 2709.15C238.35 2708.41 237.516 2708.02 236.772 2708.29C236.028 2708.56 235.639 2709.39 235.91 2710.14L238.063 2716.05L232.15 2718.2C231.405 2718.48 231.017 2719.31 231.288 2720.05C231.559 2720.8 232.392 2721.19 233.137 2720.92L239.05 2718.76L241.203 2724.68C241.474 2725.42 242.308 2725.81 243.052 2725.54C243.796 2725.27 244.185 2724.43 243.914 2723.69L241.761 2717.78L247.674 2715.62C248.419 2715.35 248.807 2714.52 248.536 2713.77C248.27 2713.02 247.445 2712.64 246.687 2712.91Z" fill="#FFC263"/>
<path d="M371.01 43.4124L365.066 41.3444L367.134 35.4007C367.394 34.6527 366.994 33.8245 366.246 33.5642C365.498 33.304 364.669 33.7046 364.409 34.4526L362.341 40.3964L356.397 38.3283C355.649 38.0681 354.821 38.4687 354.561 39.2167C354.301 39.9647 354.701 40.7929 355.449 41.0531L361.393 43.1211L359.325 49.0649C359.065 49.8129 359.465 50.6411 360.213 50.9013C360.961 51.1616 361.79 50.7609 362.05 50.0129L364.118 44.0692L370.062 46.1372C370.81 46.3975 371.638 45.9968 371.898 45.2489C372.167 44.4965 371.771 43.6773 371.01 43.4124Z" fill="#FFC263"/>
<path d="M548.779 128.841L542.582 127.743L543.68 121.547C543.819 120.767 543.291 120.013 542.512 119.875C541.732 119.736 540.978 120.264 540.84 121.043L539.742 127.24L533.545 126.142C532.765 126.004 532.011 126.531 531.873 127.311C531.735 128.091 532.262 128.845 533.042 128.983L539.238 130.081L538.141 136.278C538.002 137.057 538.529 137.811 539.309 137.95C540.089 138.088 540.843 137.561 540.981 136.781L542.079 130.584L548.276 131.682C549.056 131.82 549.81 131.293 549.948 130.513C550.094 129.728 549.573 128.982 548.779 128.841Z" fill="#FFC263"/>
<path d="M1035.04 1117L1088.88 1062.96C1103.81 1077.83 1103.85 1101.98 1088.98 1116.9C1074.12 1131.83 1049.97 1131.87 1035.04 1117Z" fill="#FF7E3D"/>
<path d="M167.94 2289.11L114 2235.17C128.9 2220.27 153.05 2220.27 167.94 2235.17C182.84 2250.06 182.84 2274.21 167.94 2289.11Z" fill="#FF7E3D"/>
<path d="M1152.46 2913.71L1097.65 2966.76C1082.99 2951.62 1083.39 2927.48 1098.52 2912.83C1113.65 2898.17 1137.8 2898.57 1152.46 2913.71Z" fill="#FF7E3D"/>
<path d="M166.723 1206.92L118.665 1266.16C102.301 1252.88 99.7975 1228.86 113.074 1212.51C126.339 1196.14 150.359 1193.64 166.723 1206.92Z" fill="#FFC263"/>
<path d="M157.09 1535.41L219.269 1491.22C231.476 1508.4 227.449 1532.21 210.275 1544.41C193.109 1556.61 169.297 1552.59 157.09 1535.41Z" fill="#FFC263"/>
<path opacity="0.49" d="M1 554.813C3.53935 552.231 7.98848 556.754 10.5278 554.173C13.0672 551.591 8.61804 547.069 11.1574 544.488C13.6967 541.907 18.1459 546.429 20.6852 543.848C23.2246 541.267 18.7754 536.744 21.3043 534.163C23.8436 531.582 28.2928 536.104 30.8321 533.523C33.3715 530.942 28.9224 526.419 31.4617 523.827C34.0011 521.246 38.4502 525.769 41 523.187" stroke="#FFC751" stroke-width="2" stroke-miterlimit="10" stroke-linecap="round" stroke-linejoin="round"/>
<path opacity="0.49" d="M137 1058.81C139.539 1056.23 143.988 1060.75 146.528 1058.17C149.067 1055.59 144.618 1051.07 147.157 1048.49C149.697 1045.91 154.146 1050.43 156.685 1047.85C159.225 1045.27 154.775 1040.74 157.304 1038.16C159.844 1035.58 164.293 1040.1 166.832 1037.52C169.371 1034.94 164.922 1030.42 167.462 1027.83C170.001 1025.25 174.45 1029.77 177 1027.19" stroke="#FFC751" stroke-width="2" stroke-miterlimit="10" stroke-linecap="round" stroke-linejoin="round"/>
<path opacity="0.49" d="M177 1930.81C179.539 1928.23 183.988 1932.75 186.528 1930.17C189.067 1927.59 184.618 1923.07 187.157 1920.49C189.697 1917.91 194.146 1922.43 196.685 1919.85C199.225 1917.27 194.775 1912.74 197.304 1910.16C199.844 1907.58 204.293 1912.1 206.832 1909.52C209.371 1906.94 204.922 1902.42 207.462 1899.83C210.001 1897.25 214.45 1901.77 217 1899.19" stroke="#FFC751" stroke-width="2" stroke-miterlimit="10" stroke-linecap="round" stroke-linejoin="round"/>
<path opacity="0.49" d="M1039 1852.81C1041.54 1850.23 1045.99 1854.75 1048.53 1852.17C1051.07 1849.59 1046.62 1845.07 1049.16 1842.49C1051.7 1839.91 1056.15 1844.43 1058.69 1841.85C1061.22 1839.27 1056.78 1834.74 1059.3 1832.16C1061.84 1829.58 1066.29 1834.1 1068.83 1831.52C1071.37 1828.94 1066.92 1824.42 1069.46 1821.83C1072 1819.25 1076.45 1823.77 1079 1821.19" stroke="#FFC751" stroke-width="2" stroke-miterlimit="10" stroke-linecap="round" stroke-linejoin="round"/>
<path opacity="0.49" d="M1048 2288.81C1050.54 2286.23 1054.99 2290.75 1057.53 2288.17C1060.07 2285.59 1055.62 2281.07 1058.16 2278.49C1060.7 2275.91 1065.15 2280.43 1067.69 2277.85C1070.22 2275.27 1065.78 2270.74 1068.3 2268.16C1070.84 2265.58 1075.29 2270.1 1077.83 2267.52C1080.37 2264.94 1075.92 2260.42 1078.46 2257.83C1081 2255.25 1085.45 2259.77 1088 2257.19" stroke="#FFC751" stroke-width="2" stroke-miterlimit="10" stroke-linecap="round" stroke-linejoin="round"/>
<path opacity="0.49" d="M1048 2783.81C1050.54 2781.23 1054.99 2785.75 1057.53 2783.17C1060.07 2780.59 1055.62 2776.07 1058.16 2773.49C1060.7 2770.91 1065.15 2775.43 1067.69 2772.85C1070.22 2770.27 1065.78 2765.74 1068.3 2763.16C1070.84 2760.58 1075.29 2765.1 1077.83 2762.52C1080.37 2759.94 1075.92 2755.42 1078.46 2752.83C1081 2750.25 1085.45 2754.77 1088 2752.19" stroke="#FFC751" stroke-width="2" stroke-miterlimit="10" stroke-linecap="round" stroke-linejoin="round"/>
<path opacity="0.49" d="M362 1396.81C364.539 1394.23 368.988 1398.75 371.528 1396.17C374.067 1393.59 369.618 1389.07 372.157 1386.49C374.697 1383.91 379.146 1388.43 381.685 1385.85C384.225 1383.27 379.775 1378.74 382.304 1376.16C384.844 1373.58 389.293 1378.1 391.832 1375.52C394.371 1372.94 389.922 1368.42 392.462 1365.83C395.001 1363.25 399.45 1367.77 402 1365.19" stroke="#FFC751" stroke-width="2" stroke-miterlimit="10" stroke-linecap="round" stroke-linejoin="round"/>
<path opacity="0.49" d="M1100 707.813C1102.54 705.231 1106.99 709.754 1109.53 707.173C1112.07 704.591 1107.62 700.069 1110.16 697.488C1112.7 694.907 1117.15 699.429 1119.69 696.848C1122.22 694.267 1117.78 689.744 1120.3 687.163C1122.84 684.582 1127.29 689.104 1129.83 686.523C1132.37 683.942 1127.92 679.419 1130.46 676.827C1133 674.246 1137.45 678.769 1140 676.187" stroke="#FFC751" stroke-width="2" stroke-miterlimit="10" stroke-linecap="round" stroke-linejoin="round"/>
<path opacity="0.49" d="M1271.92 16.0876C1268.88 17.2168 1266.99 11.858 1263.95 12.9873C1260.91 14.1165 1262.8 19.4753 1259.76 20.6045C1256.72 21.7338 1254.83 16.375 1251.79 17.5042C1248.75 18.6335 1250.64 23.9923 1247.61 25.1255C1244.57 26.2548 1242.67 20.896 1239.63 22.0252C1236.59 23.1545 1238.48 28.5132 1235.44 29.6511C1232.4 30.7804 1230.51 25.4216 1227.46 26.5469" stroke="#FFC751" stroke-width="2" stroke-miterlimit="10" stroke-linecap="round" stroke-linejoin="round"/>
<path d="M1147.58 503.802L1204.6 528.386L1163.8 544.604L1147.58 503.802Z" fill="#FFC263"/>
<path d="M225 834.217L282.019 858.801L241.217 875.019L225 834.217Z" fill="#FF7E3D"/>
<path d="M1011.28 1347.39L959 1380.89L968.395 1338L1011.28 1347.39Z" fill="#FFC263"/>
<path d="M1252.28 2432.39L1200 2465.89L1209.39 2423L1252.28 2432.39Z" fill="#FFC263"/>
<path d="M217.939 2955.18L272.345 2985.1L230.18 2997.35L217.939 2955.18Z" fill="#FFC263"/>
</svg>
