<svg width="1440" height="50" viewBox="0 0 1440 50" fill="none" xmlns="http://www.w3.org/2000/svg">
<path fill-rule="evenodd" clip-rule="evenodd" d="M-135.153 0.858704L-96.5866 39.4246L-58.1611 1.00519L-57.6553 1.51085L-57.0032 0.858704L-18.4372 39.4246L19.9883 1.00519L20.2656 1.28242L20.6893 0.858704L59.2552 39.4246L97.6806 1.00519L97.7294 1.05397L97.9247 0.858704L136.491 39.4247L174.916 1.00519L174.965 1.05393L175.16 0.858704L213.726 39.4247L252.152 1.00519L252.2 1.05381L252.395 0.858704L290.961 39.4246L329.387 1.00519L329.436 1.05393L329.631 0.858704L368.197 39.4246L406.622 1.00519L406.671 1.05401L406.866 0.858704L445.432 39.4246L483.858 1.00519L483.906 1.05386L484.102 0.858704L522.667 39.4246L561.093 1.00519L561.142 1.05404L561.337 0.858704L599.903 39.4246L638.329 1.00519L638.377 1.05383L638.572 0.858704L677.138 39.4246L715.564 1.00519L715.612 1.05377L715.807 0.858704L754.373 39.4246L792.799 1.00519L792.848 1.05407L793.043 0.858704L831.609 39.4246L870.035 1.00519L870.083 1.05383L870.278 0.858704L908.844 39.4246L947.27 1.00519L947.318 1.05389L947.514 0.858704L986.08 39.4246L1024.51 1.00519L1024.55 1.05401L1024.75 0.858704L1063.32 39.4246L1101.74 1.00519L1101.79 1.05383L1101.98 0.858704L1140.55 39.4247L1178.98 1.00518L1179.02 1.05401L1179.22 0.858704L1217.79 39.4247L1256.21 1.00518L1256.26 1.05419L1256.46 0.858704L1295.02 39.4246L1333.45 1.00519L1333.5 1.05383L1333.69 0.858704L1372.26 39.4247L1410.68 1.00519L1410.73 1.05395L1410.93 0.858704L1449.49 39.4247L1487.92 1.00519L1487.97 1.05352L1488.16 0.858704L1526.73 39.4247L1565.15 1.00519L1570 5.85179L1526.7 49.1481L1521.85 44.3015L1521.88 44.2713L1488.11 10.504L1449.46 49.1481L1444.61 44.3015L1444.64 44.2713L1410.88 10.5035L1372.23 49.1481L1367.38 44.3015L1367.41 44.2713L1333.64 10.5037L1294.99 49.1481L1290.14 44.3015L1290.17 44.2712L1256.41 10.5034L1217.76 49.1481L1212.91 44.3015L1212.94 44.2713L1179.17 10.5035L1140.52 49.1481L1135.67 44.3015L1135.7 44.2713L1101.94 10.5037L1063.28 49.1481L1058.44 44.3015L1058.47 44.2712L1024.7 10.5035L986.049 49.1481L981.202 44.3015L981.232 44.2712L947.465 10.5036L908.814 49.1481L903.967 44.3015L903.997 44.2712L870.229 10.5037L831.579 49.1481L826.731 44.3015L826.762 44.2712L792.994 10.5034L754.343 49.1481L749.496 44.3015L749.526 44.2712L715.758 10.5037L677.108 49.1481L672.261 44.3015L672.291 44.2712L638.523 10.5037L599.873 49.1481L595.025 44.3015L595.056 44.2712L561.288 10.5034L522.637 49.1481L517.79 44.3015L517.82 44.2712L484.052 10.5036L445.402 49.1481L440.555 44.3015L440.585 44.2712L406.817 10.5035L368.166 49.1481L363.319 44.3015L363.349 44.2712L329.582 10.5035L290.931 49.1481L286.084 44.3015L286.114 44.2712L252.346 10.5037L213.696 49.1481L208.849 44.3015L208.879 44.2713L175.111 10.5035L136.46 49.1481L131.613 44.3015L131.643 44.2713L97.8755 10.5035L59.2248 49.1481L54.3775 44.3015L54.4078 44.2712L20.4117 10.2751L-18.4675 49.1481L-23.3149 44.3015L-23.2846 44.2713L-57.5092 10.0466L-96.6168 49.1481L-101.464 44.3015L-101.434 44.2712L-140 5.70569L-135.153 0.858704Z" fill="#FFC751" fill-opacity="0.05"/>
</svg>
